<?xml version="1.0" standalone="no"?>
<!DOCTYPE svg PUBLIC "-//W3C//DTD SVG 20010904//EN"
 "http://www.w3.org/TR/2001/REC-SVG-20010904/DTD/svg10.dtd">
<svg version="1.0" xmlns="http://www.w3.org/2000/svg"
 width="700.000000pt" height="700.000000pt" viewBox="0 0 700.000000 700.000000"
 preserveAspectRatio="xMidYMid meet">
<metadata>
Created by potrace 1.14, written by Peter Selinger 2001-2017
</metadata>
<g transform="translate(0.000000,700.000000) scale(0.100000,-0.100000)"
fill="#000000" stroke="none">
<path d="M4335 6619 c-2 -3 -18 -5 -35 -4 -16 1 -30 -2 -30 -7 0 -6 -6 -8 -12
-6 -7 3 -42 -6 -78 -20 -36 -13 -73 -24 -82 -25 -10 -1 -18 -4 -18 -7 0 -3
-15 -12 -32 -19 -18 -8 -39 -21 -46 -28 -7 -7 -19 -13 -25 -13 -11 0 -22 -8
-111 -82 -22 -18 -44 -31 -50 -30 -6 2 -8 1 -4 -3 3 -3 -14 -27 -38 -53 -24
-26 -44 -52 -44 -57 0 -6 -9 -16 -21 -23 -12 -7 -18 -16 -15 -19 3 -3 -4 -14
-15 -24 -11 -9 -20 -20 -20 -23 0 -10 -27 -71 -35 -79 -7 -7 -32 -68 -37 -92
-2 -5 -5 -14 -9 -20 -3 -5 -9 -26 -13 -45 -4 -19 -13 -38 -19 -42 -8 -6 -7 -8
2 -8 9 0 10 -6 4 -17 -4 -10 -8 -25 -7 -33 1 -23 -21 -41 -41 -33 -13 5 -15 3
-9 -8 8 -12 6 -12 -9 0 -14 12 -19 12 -26 2 -6 -11 -9 -11 -13 0 -5 12 -7 12
-15 0 -8 -11 -10 -11 -15 0 -5 12 -7 12 -15 0 -8 -11 -10 -11 -14 0 -4 12 -8
11 -23 -1 -11 -9 -16 -10 -11 -2 4 7 1 12 -8 12 -14 0 -18 -6 -15 -26 0 -4 -5
-10 -11 -14 -8 -5 -9 -13 -4 -21 11 -18 12 -40 1 -61 -4 -10 -4 -18 2 -18 5 0
6 -14 1 -34 -4 -19 -4 -40 1 -47 4 -7 4 -20 -1 -29 -6 -11 -5 -21 2 -28 9 -9
9 -12 -1 -12 -10 0 -11 -3 -2 -14 8 -10 9 -16 1 -21 -6 -3 -7 -12 -3 -18 9
-15 10 -34 2 -74 -4 -18 -4 -35 -1 -38 7 -7 9 -55 2 -55 -3 0 -6 -9 -6 -20 0
-11 3 -20 7 -20 8 0 4 -45 -6 -59 -3 -6 -2 -11 3 -11 6 0 7 -14 2 -34 -4 -19
-6 -37 -3 -40 7 -7 11 -56 4 -56 -4 0 -7 -9 -7 -20 0 -11 3 -20 7 -20 9 0 6
-21 -4 -37 -5 -8 -3 -13 4 -13 8 0 8 -4 -1 -15 -9 -11 -9 -15 -1 -15 7 0 9 -5
6 -11 -10 -15 -12 -79 -3 -79 7 0 3 -34 -7 -50 -3 -6 -3 -10 2 -10 4 0 8 -11
8 -25 0 -14 -2 -25 -5 -25 -3 0 -6 -9 -6 -20 0 -11 3 -20 7 -20 9 0 6 -21 -4
-37 -5 -8 -3 -13 4 -13 8 0 8 -4 -1 -15 -9 -11 -9 -15 -1 -15 7 0 9 -5 6 -11
-10 -15 -12 -79 -3 -79 7 0 3 -34 -7 -50 -3 -6 -3 -10 2 -10 4 0 8 -11 8 -25
0 -14 -2 -25 -5 -25 -3 0 -6 -9 -6 -20 0 -11 3 -20 7 -20 9 0 6 -21 -4 -37 -5
-8 -3 -13 4 -13 8 0 8 -4 -1 -15 -9 -11 -9 -15 -1 -15 7 0 9 -5 6 -11 -10 -15
-12 -79 -3 -79 7 0 3 -34 -7 -50 -3 -6 -3 -10 2 -10 4 0 8 -11 8 -25 0 -14 -2
-25 -5 -25 -3 0 -6 -9 -6 -20 0 -11 3 -20 7 -20 9 0 6 -21 -4 -37 -5 -8 -3
-13 4 -13 8 0 8 -4 -1 -15 -9 -11 -9 -15 -1 -15 7 0 9 -5 6 -11 -10 -15 -12
-79 -3 -79 7 0 3 -34 -7 -50 -3 -6 -2 -10 4 -10 6 0 6 -11 1 -29 -6 -21 -5
-31 3 -34 9 -3 8 -8 -2 -20 -7 -10 -9 -17 -3 -17 12 0 11 -32 -2 -41 -5 -4 -5
-13 0 -20 11 -18 12 -40 1 -61 -4 -10 -4 -18 2 -18 5 0 6 -14 1 -34 -4 -19 -4
-40 1 -47 4 -7 4 -20 -1 -29 -6 -11 -5 -21 2 -28 9 -9 9 -12 -1 -12 -10 0 -11
-3 -2 -14 8 -10 9 -16 1 -21 -6 -3 -7 -12 -3 -18 9 -15 10 -34 2 -74 -4 -18
-4 -35 -1 -38 7 -7 9 -55 2 -55 -3 0 -6 -9 -6 -20 0 -11 3 -20 7 -20 8 0 4
-45 -6 -59 -3 -6 -2 -11 3 -11 6 0 7 -14 2 -34 -4 -19 -4 -40 1 -47 4 -7 4
-20 -1 -29 -6 -11 -5 -21 2 -28 9 -9 9 -12 -1 -12 -10 0 -11 -3 -2 -14 8 -10
9 -16 1 -21 -6 -3 -7 -12 -3 -18 10 -16 10 -38 0 -59 -4 -11 -4 -18 2 -18 5 0
7 -9 4 -20 -3 -11 -10 -20 -15 -20 -5 0 -6 -4 -3 -10 7 -12 -2 -12 -30 -1 -11
5 -28 4 -39 -1 -13 -7 -21 -6 -27 3 -7 12 -9 12 -9 0 0 -10 -3 -11 -13 -2 -10
8 -17 7 -27 -2 -10 -10 -11 -9 -5 1 6 11 3 12 -12 4 -11 -6 -25 -7 -33 -2 -9
6 -17 5 -22 -3 -6 -9 -10 -8 -18 3 -9 13 -10 13 -10 0 0 -13 -1 -13 -10 0 -9
13 -10 13 -10 0 0 -13 -1 -13 -10 0 -9 13 -10 13 -10 0 0 -13 -1 -13 -10 0 -9
13 -10 13 -10 0 0 -13 -1 -13 -10 0 -9 13 -10 13 -10 0 0 -13 -1 -13 -10 0 -9
13 -10 13 -10 0 0 -13 -1 -13 -10 0 -9 13 -10 13 -10 0 0 -13 -1 -13 -10 0 -9
13 -11 13 -20 0 -6 -9 -13 -11 -17 -5 -5 6 -15 10 -23 10 -8 0 -19 -4 -23 -10
-6 -6 -10 -6 -14 2 -3 9 -10 10 -24 3 -14 -8 -19 -7 -19 2 0 9 -3 9 -10 -2 -7
-11 -10 -11 -10 -2 0 8 -5 10 -12 6 -21 -13 -48 -11 -48 3 0 8 -4 11 -10 8 -6
-3 -7 1 -4 9 3 9 10 16 15 16 5 0 9 5 9 11 0 5 -6 7 -12 3 -7 -4 -5 2 5 13 18
20 24 39 26 73 1 13 2 13 11 0 8 -12 10 -10 11 10 1 14 1 28 0 33 0 4 4 7 10
7 6 0 9 6 6 14 -3 8 -1 16 4 18 6 2 12 12 13 23 2 11 8 19 12 18 5 -1 10 10
11 24 0 14 7 29 15 34 10 7 10 9 -2 9 -12 1 -11 3 3 11 9 6 15 14 12 20 -4 5
-1 9 5 9 6 0 9 4 5 9 -3 5 -1 12 5 16 6 4 8 11 5 16 -4 5 -1 9 4 9 6 0 10 3
10 8 -4 21 2 32 14 26 7 -5 6 0 -3 11 -9 11 -10 16 -2 11 6 -4 13 -2 13 3 3
21 4 26 12 39 5 6 5 18 1 25 -4 6 -4 9 1 5 8 -8 47 65 48 90 0 6 4 12 8 12 4
0 6 9 4 20 -2 11 0 18 6 15 5 -4 9 3 9 14 0 12 5 21 12 21 6 0 8 3 5 6 -3 4
-1 16 5 28 7 11 11 24 10 29 -1 4 5 7 13 7 13 0 14 4 5 20 -9 16 -8 22 5 26 8
3 15 15 15 25 0 10 4 19 10 19 5 0 7 7 4 15 -4 8 -2 15 4 15 9 0 23 30 26 55
1 6 6 15 13 20 7 6 15 26 18 45 3 19 10 37 16 38 5 2 9 10 9 18 0 8 5 14 11
14 5 0 7 5 4 10 -4 6 -1 18 7 27 11 14 11 16 -1 8 -10 -6 -12 -4 -6 6 13 20
15 59 3 59 -7 0 -6 5 1 14 9 10 9 16 1 21 -8 5 -8 11 -1 19 7 9 7 17 -2 26 -9
10 -9 11 1 6 7 -5 12 -1 12 9 0 9 -4 13 -10 10 -6 -4 -7 2 -1 18 7 17 6 29 -2
37 -9 10 -9 11 1 6 7 -5 12 -1 12 9 0 9 -4 13 -10 10 -6 -4 -7 2 -1 18 7 17 6
29 -2 37 -9 10 -9 11 1 6 7 -5 12 -1 12 9 0 9 -4 13 -10 10 -6 -4 -7 2 -1 18
7 17 6 29 -2 37 -9 10 -9 11 1 6 7 -5 12 -1 12 9 0 9 -4 13 -10 10 -6 -4 -7 2
-1 18 7 17 6 29 -2 37 -9 10 -9 11 1 6 7 -5 12 -1 12 9 0 9 -4 13 -10 10 -6
-4 -7 2 -1 18 7 17 6 29 -2 37 -9 10 -9 11 1 6 7 -5 12 -1 12 9 0 9 -4 13 -10
10 -6 -4 -7 2 -1 18 7 17 6 29 -2 37 -9 10 -9 11 1 6 7 -5 12 -1 12 9 0 9 -4
13 -10 10 -6 -4 -7 2 -1 18 7 17 6 29 -2 37 -9 10 -9 11 1 6 7 -5 12 -1 12 9
0 9 -4 13 -10 10 -6 -4 -7 2 -1 18 7 17 6 29 -2 37 -9 10 -9 11 1 6 7 -5 12
-1 12 9 0 9 -4 13 -10 10 -6 -4 -7 2 -1 18 7 17 6 29 -2 37 -9 10 -9 11 1 6 7
-5 12 -1 12 9 0 9 -4 13 -10 10 -6 -4 -7 2 -1 18 7 17 6 29 -2 37 -9 10 -9 11
1 6 7 -5 12 -1 12 9 0 9 -4 13 -10 10 -6 -4 -7 2 -1 18 7 17 6 29 -2 37 -9 10
-9 11 1 6 7 -5 12 -1 12 9 0 9 -4 13 -10 10 -6 -4 -7 2 -1 18 7 17 6 29 -2 37
-9 10 -9 11 1 6 7 -5 12 -1 12 9 0 10 -5 13 -12 9 -7 -5 -8 -3 -4 5 15 24 18
71 4 71 -9 0 -9 3 2 10 12 8 12 10 1 10 -11 0 -11 3 0 17 11 13 11 17 2 20 -7
3 -13 9 -13 14 0 6 4 8 8 5 4 -2 8 4 8 15 0 10 -4 19 -8 19 -4 0 -5 7 -2 15 4
8 11 12 18 8 8 -4 8 -2 -1 7 -6 7 -9 19 -6 28 4 9 2 13 -4 9 -11 -7 -11 22 1
41 4 6 3 12 -3 12 -6 0 -8 7 -5 15 4 8 11 12 18 8 8 -4 8 -2 -1 7 -6 7 -9 19
-6 28 4 9 2 13 -4 9 -11 -7 -11 22 1 41 4 6 3 12 -3 12 -6 0 -8 7 -5 15 4 8
11 12 18 8 8 -4 8 -2 -1 7 -6 7 -9 19 -6 28 4 9 2 13 -4 9 -5 -3 -9 3 -7 16 1
12 3 22 4 22 1 0 3 15 6 33 2 18 -1 32 -6 32 -7 0 -7 7 0 20 6 11 8 20 4 20
-3 0 -1 7 6 15 11 13 10 14 -2 10 -16 -6 -19 20 -5 42 4 7 2 21 -5 33 -12 18
-23 20 -126 20 -105 0 -114 -2 -119 -20 -3 -11 -10 -17 -17 -13 -6 3 -8 2 -3
-2 4 -5 0 -19 -9 -33 -11 -17 -12 -22 -3 -17 8 5 6 -1 -4 -12 -9 -11 -14 -23
-10 -26 3 -4 1 -7 -6 -7 -7 0 -11 -6 -8 -14 3 -8 -1 -17 -9 -20 -9 -3 -14 -12
-12 -18 3 -7 -2 -19 -9 -27 -8 -7 -12 -19 -9 -26 3 -8 -2 -16 -11 -19 -8 -4
-13 -13 -9 -21 3 -8 1 -15 -5 -15 -6 0 -7 -4 -4 -10 3 -5 1 -10 -4 -10 -6 0
-11 -9 -11 -20 0 -11 -4 -20 -9 -20 -5 0 -12 -12 -16 -27 -3 -15 -11 -30 -16
-34 -5 -3 -11 -19 -12 -36 -1 -17 -6 -31 -12 -30 -5 1 -9 -4 -7 -10 1 -7 -2
-13 -8 -13 -6 0 -9 -3 -8 -7 1 -5 -4 -19 -12 -33 -7 -14 -12 -25 -11 -25 1 0
-3 -13 -10 -30 -7 -16 -12 -33 -11 -37 1 -5 -3 -8 -9 -8 -5 0 -7 -4 -4 -10 3
-5 3 -10 -2 -10 -4 0 -13 -11 -20 -25 -8 -19 -8 -24 0 -19 7 3 4 -1 -7 -10
-10 -8 -15 -19 -11 -25 3 -6 1 -11 -4 -11 -6 0 -11 -6 -11 -14 0 -8 -8 -22
-17 -32 -10 -9 -18 -22 -18 -28 -1 -29 -18 -76 -26 -76 -6 0 -7 -5 -4 -10 3
-6 -1 -13 -9 -16 -9 -3 -13 -10 -10 -15 3 -6 0 -16 -6 -24 -7 -8 -9 -15 -4
-15 4 0 0 -6 -11 -13 -10 -8 -15 -19 -11 -25 4 -7 2 -12 -4 -12 -6 0 -8 -4 -5
-10 3 -5 1 -10 -5 -10 -7 0 -10 -6 -8 -12 3 -7 -1 -19 -9 -26 -7 -8 -11 -18
-8 -23 4 -5 2 -9 -4 -9 -5 0 -12 -13 -16 -30 -4 -16 -11 -30 -16 -30 -6 0 -8
-4 -4 -9 3 -5 -1 -15 -8 -23 -8 -7 -13 -21 -11 -30 1 -9 -5 -19 -13 -22 -8 -3
-12 -10 -8 -15 3 -5 0 -13 -6 -16 -5 -4 -8 -14 -5 -22 3 -8 2 -12 -3 -9 -8 5
-25 -29 -22 -46 1 -5 -4 -8 -10 -8 -6 0 -8 -7 -5 -16 3 -8 2 -12 -4 -9 -6 3
-10 -2 -10 -12 0 -10 -7 -29 -16 -41 -9 -13 -13 -30 -10 -38 3 -8 2 -13 -3
-10 -5 3 -15 -2 -22 -11 -12 -14 -12 -16 1 -8 12 6 13 5 3 -6 -7 -7 -13 -21
-13 -32 0 -10 -4 -15 -10 -12 -6 3 -7 -1 -4 -9 3 -9 1 -16 -6 -16 -6 0 -8 -4
-5 -10 3 -5 1 -10 -5 -10 -6 0 -9 -4 -5 -9 3 -5 1 -12 -5 -16 -5 -3 -10 -15
-10 -26 0 -11 -6 -22 -14 -25 -8 -3 -12 -12 -9 -20 3 -8 -1 -14 -8 -14 -12 0
-12 -2 -1 -9 11 -7 10 -9 -3 -15 -9 -3 -13 -10 -10 -16 3 -5 2 -10 -2 -10 -5
0 -17 -22 -28 -50 -11 -27 -24 -50 -29 -50 -5 0 -7 -3 -3 -6 3 -3 -6 -28 -19
-55 -14 -27 -22 -54 -19 -59 3 -6 1 -10 -4 -10 -6 0 -11 -7 -11 -15 0 -8 -8
-15 -17 -15 -14 0 -15 -2 -4 -9 9 -6 10 -11 2 -15 -6 -4 -11 -16 -11 -27 0
-10 -4 -19 -10 -19 -5 0 -12 -16 -16 -35 -4 -21 -10 -32 -17 -28 -6 4 -8 0 -4
-10 3 -9 0 -18 -8 -21 -8 -3 -12 -12 -9 -19 3 -8 -2 -17 -10 -20 -9 -4 -16
-11 -16 -17 0 -6 5 -8 11 -5 6 4 5 -2 -3 -14 -7 -12 -15 -21 -18 -21 -3 0 -7
-10 -7 -22 -1 -13 -9 -28 -18 -34 -9 -7 -15 -16 -13 -20 5 -16 -24 -74 -33
-68 -5 3 -9 2 -8 -3 4 -22 -2 -54 -9 -49 -4 2 -9 -7 -10 -22 -1 -14 -7 -29
-13 -33 -7 -4 -9 -11 -5 -17 3 -5 -1 -13 -10 -16 -9 -3 -14 -13 -11 -20 3 -8
-1 -17 -8 -20 -9 -3 -12 -12 -8 -22 5 -13 2 -16 -10 -11 -14 5 -15 2 -7 -18 7
-20 6 -25 -5 -25 -8 0 -14 -3 -13 -7 1 -5 -3 -18 -10 -30 -7 -13 -9 -23 -5
-23 4 0 -1 -7 -11 -15 -11 -8 -16 -15 -11 -15 4 0 0 -9 -9 -19 -13 -14 -14
-21 -5 -27 9 -5 9 -10 -3 -18 -15 -11 -32 -46 -30 -58 1 -5 -3 -8 -8 -8 -5 0
-9 -3 -9 -7 3 -15 -23 -73 -33 -73 -5 0 -6 -4 -3 -10 3 -6 2 -10 -4 -10 -6 0
-8 -7 -5 -15 4 -8 1 -15 -5 -15 -6 0 -10 -3 -9 -7 1 -5 -3 -18 -10 -29 -6 -12
-8 -24 -5 -28 3 -3 1 -6 -6 -6 -7 0 -11 -6 -8 -14 3 -8 -1 -17 -9 -20 -8 -3
-14 -15 -14 -26 0 -11 -4 -20 -10 -20 -5 0 -10 -9 -10 -20 0 -11 -4 -20 -10
-20 -5 0 -7 -7 -4 -15 4 -8 1 -15 -6 -15 -6 0 -9 -4 -5 -9 3 -5 0 -13 -6 -16
-5 -4 -8 -14 -5 -22 3 -8 1 -11 -4 -8 -9 6 -14 -8 -11 -28 0 -4 -3 -7 -8 -7
-5 0 -15 -20 -22 -44 -7 -25 -17 -42 -23 -39 -5 4 -7 -3 -4 -15 4 -15 2 -22
-8 -22 -8 0 -11 -6 -8 -15 4 -9 0 -15 -7 -15 -11 0 -11 -3 1 -10 13 -9 13 -10
0 -10 -9 0 -16 -9 -17 -21 -1 -12 -10 -28 -20 -36 -10 -8 -12 -11 -4 -8 9 5 8
-1 -4 -19 -10 -14 -14 -26 -10 -26 3 0 -1 -7 -9 -16 -9 -8 -14 -20 -10 -25 3
-5 -2 -12 -11 -15 -13 -6 -14 -8 -3 -15 10 -7 10 -9 1 -9 -7 0 -13 -7 -13 -16
0 -8 -4 -13 -9 -10 -5 4 -7 -3 -4 -14 3 -11 0 -20 -6 -20 -6 0 -11 -9 -11 -21
0 -11 -4 -18 -9 -15 -5 4 -8 -5 -7 -19 2 -13 -1 -22 -5 -19 -8 5 -13 -10 -10
-28 0 -5 -7 -8 -17 -8 -14 0 -15 -2 -2 -10 11 -7 11 -10 2 -10 -7 0 -10 -4 -7
-10 3 -5 1 -10 -4 -10 -6 0 -11 -9 -11 -19 0 -11 -7 -26 -15 -34 -8 -8 -11
-17 -8 -21 4 -3 1 -6 -5 -6 -6 0 -9 -6 -6 -14 3 -7 -2 -21 -11 -29 -9 -9 -16
-19 -15 -22 0 -13 -33 -85 -40 -85 -5 0 -7 -8 -6 -17 2 -10 -3 -24 -11 -31 -7
-8 -11 -18 -8 -23 4 -5 1 -9 -5 -9 -7 0 -10 -6 -8 -12 3 -7 -1 -19 -9 -26 -7
-7 -13 -22 -13 -31 0 -10 -6 -24 -14 -30 -8 -7 -13 -21 -11 -31 2 -11 -1 -19
-8 -17 -7 1 -11 -6 -11 -15 1 -10 -5 -18 -13 -18 -9 0 -11 -5 -6 -12 12 -21
12 -38 0 -38 -7 0 -5 -4 3 -10 13 -8 13 -13 2 -31 -8 -11 -9 -18 -3 -14 15 9
14 -8 -1 -24 -10 -11 -10 -13 -1 -7 9 5 12 0 10 -16 -2 -22 1 -23 69 -24 39
-1 76 -4 82 -8 6 -3 13 0 16 6 5 11 7 11 12 0 3 -6 10 -10 15 -6 18 11 49 13
49 3 0 -6 5 -7 11 -3 18 11 119 10 119 -1 0 -6 3 -6 8 1 8 11 62 11 80 0 6 -3
14 -1 18 5 4 8 9 7 15 -2 5 -8 9 -9 9 -3 0 11 60 11 78 0 6 -3 14 -1 18 5 4 8
9 7 15 -2 5 -8 9 -9 9 -4 0 12 100 12 118 1 6 -3 14 -1 18 5 4 8 9 7 15 -2 5
-8 9 -9 9 -3 0 11 66 11 77 0 3 -3 12 -1 20 5 10 9 13 8 13 -2 0 -12 2 -12 9
0 6 10 13 10 28 2 11 -5 23 -7 27 -4 10 10 46 11 46 1 0 -5 5 -6 12 -2 6 4 36
8 67 8 39 1 55 5 54 14 -2 6 1 12 7 12 5 0 7 7 4 15 -4 8 -2 15 4 15 6 0 13
14 17 30 4 17 11 30 16 30 6 0 7 5 4 10 -3 6 -1 10 5 10 7 0 10 6 7 14 -3 8 1
17 10 20 8 4 13 13 9 21 -3 8 -1 15 4 15 5 0 7 7 4 15 -4 8 -1 15 5 15 6 0 11
6 11 14 0 8 6 17 13 19 9 4 9 6 -1 6 -10 1 -10 4 0 15 7 8 16 12 21 9 4 -2 7
1 7 6 0 6 -6 11 -12 11 -9 0 -9 3 -2 8 11 8 49 84 45 91 -2 2 2 7 9 11 6 4 12
13 13 21 2 8 6 20 10 27 5 6 5 17 1 24 -4 7 -3 8 4 4 7 -4 12 -1 12 9 0 21 24
45 45 45 10 0 13 5 9 12 -5 7 -3 8 6 3 20 -12 170 -12 170 0 0 7 3 7 8 0 9
-13 62 -17 62 -4 0 6 7 6 18 0 13 -7 23 -6 30 1 8 8 12 8 12 2 0 -6 7 -11 15
-11 8 0 15 5 15 11 0 7 3 8 8 1 9 -13 102 -14 102 0 0 6 3 7 8 0 10 -14 65
-14 75 -1 5 8 10 7 16 -2 11 -17 21 -17 32 0 5 7 9 8 9 3 0 -6 18 -11 40 -11
24 -1 37 3 33 9 -4 6 -1 7 7 2 17 -10 277 -13 293 -3 6 4 18 1 26 -5 11 -9 15
-9 18 1 3 6 9 9 14 6 18 -11 129 -12 122 -1 -3 6 -1 7 5 3 21 -13 54 -15 73
-6 12 7 20 6 25 -1 4 -8 9 -7 15 2 6 10 9 11 9 2 0 -15 21 -13 32 2 5 7 8 6 8
0 0 -12 95 -14 106 -2 4 3 14 3 23 -2 14 -6 86 -7 101 -1 3 1 10 1 15 0 28 -7
135 -5 135 2 0 5 8 4 18 -1 13 -7 23 -6 30 1 9 9 12 9 12 0 0 -14 21 -12 32 3
5 7 8 6 8 0 0 -9 104 -13 135 -5 6 1 15 1 20 0 27 -7 71 -4 77 5 5 7 8 7 8 0
0 -6 68 -10 186 -10 192 1 211 5 196 43 -4 11 -2 13 9 7 11 -7 12 -6 2 6 -17
21 -17 22 -4 48 8 14 9 21 2 17 -14 -9 -10 36 4 46 6 5 5 8 -2 8 -7 0 -13 5
-13 11 0 5 5 7 11 3 8 -4 8 -1 0 14 -13 24 -11 43 4 55 6 4 5 10 -4 16 -12 8
-12 12 -2 25 9 10 9 16 3 16 -14 0 -11 52 3 63 7 5 7 10 0 15 -15 11 -19 46
-5 37 9 -6 9 -2 1 13 -13 24 -11 43 4 55 6 4 5 10 -4 16 -12 8 -12 12 -2 25 9
10 9 16 3 16 -14 0 -11 52 3 63 7 5 7 10 0 15 -15 11 -19 46 -4 36 8 -5 10 -3
4 6 -13 20 -14 60 -3 60 6 0 4 7 -3 17 -12 14 -12 16 0 8 10 -6 12 -4 6 6 -12
18 -14 49 -3 49 4 0 8 5 8 11 0 5 -3 8 -8 5 -4 -2 -8 11 -8 30 0 19 3 34 8 34
5 0 5 8 0 18 -12 25 -8 67 6 64 7 -1 21 2 32 8 17 9 21 6 28 -22 5 -19 5 -38
0 -45 -6 -7 -4 -13 4 -16 7 -3 9 -6 3 -6 -10 -1 -11 -79 -2 -149 3 -17 2 -32
-2 -32 -8 0 -5 -115 3 -129 4 -6 4 -11 -1 -11 -9 0 -8 -104 2 -119 3 -6 0 -11
-7 -11 -10 0 -10 -2 -1 -8 8 -5 9 -13 3 -22 -5 -9 -5 -19 2 -27 6 -7 7 -13 2
-13 -10 0 -10 -92 0 -109 4 -6 4 -11 -1 -11 -12 0 -10 -74 2 -82 6 -5 6 -8 -2
-8 -8 0 -9 -9 -3 -29 4 -16 6 -32 4 -34 -3 -2 2 -7 11 -10 8 -4 15 -1 15 6 0
8 4 6 10 -3 7 -11 10 -11 10 -2 0 7 5 10 11 7 18 -12 59 -13 59 -1 0 6 5 4 10
-4 5 -8 10 -10 10 -4 0 8 11 9 35 4 24 -5 35 -4 35 4 0 6 5 4 10 -4 7 -11 10
-11 10 -2 0 7 5 10 11 7 17 -11 79 -11 79 0 0 5 5 3 10 -5 5 -8 10 -10 10 -4
0 8 11 9 35 4 24 -5 35 -4 35 4 0 6 5 4 10 -4 8 -12 10 -12 10 -1 0 11 3 11
15 1 9 -7 15 -8 15 -2 0 6 13 7 35 2 24 -5 35 -4 35 4 0 6 5 4 10 -4 7 -11 10
-11 10 -2 0 7 5 10 11 7 15 -10 59 -13 59 -5 0 4 18 4 40 0 22 -4 40 -4 40 0
0 4 16 4 35 0 24 -5 35 -4 35 4 0 6 5 4 10 -4 7 -11 10 -11 10 -2 0 7 5 10 11
7 15 -10 59 -13 59 -5 0 4 18 4 40 0 22 -4 40 -4 40 0 0 4 16 4 35 0 24 -5 35
-4 35 4 0 6 5 4 10 -4 7 -11 10 -11 10 -2 0 7 5 10 11 7 15 -10 59 -13 59 -5
0 4 18 4 40 0 22 -4 40 -4 40 0 0 4 15 4 34 0 27 -6 36 -4 40 7 3 8 6 214 6
457 l0 442 -57 -1 c-32 0 -61 4 -65 10 -5 7 -11 7 -15 0 -12 -16 -35 -17 -44
-3 -5 7 -9 8 -9 3 0 -11 -121 -12 -139 -1 -6 4 -11 3 -11 -3 0 -5 -9 -9 -20
-8 -11 1 -20 6 -20 12 0 5 -4 4 -9 -4 -6 -9 -11 -10 -15 -2 -5 8 -13 8 -28 0
-16 -9 -23 -8 -29 2 -7 12 -9 12 -9 0 0 -11 -3 -11 -15 -1 -9 8 -15 8 -15 2 0
-6 -9 -10 -20 -9 -11 1 -20 6 -20 12 0 5 -4 4 -9 -4 -6 -9 -11 -10 -15 -2 -5
8 -13 8 -28 0 -16 -9 -23 -8 -29 2 -5 8 -9 9 -9 3 0 -14 -42 -13 -52 1 -5 7
-10 7 -15 0 -12 -15 -43 -17 -43 -3 0 8 -3 9 -8 3 -9 -13 -165 -13 -174 0 -5
7 -11 7 -15 0 -12 -15 -47 -19 -37 -4 5 8 3 10 -6 4 -21 -13 -60 -14 -60 -2 0
8 -3 7 -9 -1 -4 -8 -12 -14 -16 -14 -4 0 -12 6 -16 14 -7 11 -9 11 -9 -1 0
-10 -3 -11 -13 -2 -8 6 -17 8 -21 4 -12 -12 -36 -12 -36 0 0 8 -3 8 -8 2 -10
-14 -55 -18 -46 -4 4 8 1 8 -12 2 -11 -6 -35 -9 -56 -9 -21 1 -34 -3 -31 -9 2
-5 -1 -3 -9 5 -16 18 -48 22 -48 6 0 -6 -5 -4 -10 4 -9 13 -10 13 -10 0 0 -12
-2 -12 -9 -1 -7 10 -13 11 -31 1 -15 -8 -20 -8 -16 -1 10 15 -17 14 -32 -1 -9
-9 -12 -9 -12 2 0 11 -3 11 -12 2 -8 -8 -17 -8 -31 -1 -14 8 -18 8 -12 -1 4
-7 -7 -5 -30 4 -35 15 -37 15 -24 -1 13 -17 12 -17 -4 -4 -14 11 -18 25 -15
58 2 24 -1 43 -5 43 -5 0 -5 5 -1 11 8 13 9 167 1 175 -3 3 -2 17 3 30 7 17 6
24 -3 24 -7 0 -8 3 -2 8 12 8 14 72 2 72 -4 0 -5 5 -1 11 8 13 9 167 1 175 -3
3 -2 17 3 29 6 16 5 25 -3 29 -7 2 -7 5 -2 5 10 1 12 167 2 177 -3 3 -2 17 3
29 6 16 5 25 -3 29 -7 2 -7 5 -2 5 10 1 12 167 2 177 -3 3 -2 17 3 29 6 16 5
25 -3 29 -7 2 -7 5 -2 5 10 1 12 167 2 177 -3 3 -2 17 3 29 6 16 5 25 -3 29
-7 2 -7 5 -2 5 6 1 9 33 8 81 -2 43 2 82 7 85 9 5 23 9 65 18 22 5 101 50 117
67 10 11 23 22 30 27 18 11 68 86 68 101 0 7 5 12 12 12 6 0 9 3 6 6 -4 3 -1
20 6 37 13 33 15 175 3 194 -6 9 6 19 33 28 8 3 52 24 90 45 19 10 38 16 43
13 4 -2 7 0 7 6 0 6 11 16 24 23 54 29 226 189 226 210 0 5 8 17 18 27 32 36
43 51 37 51 -4 0 1 7 9 16 9 8 16 22 16 30 0 8 5 14 10 14 6 0 9 4 8 8 -2 4 5
24 14 43 15 31 28 62 33 82 2 4 4 9 5 12 1 3 4 10 5 15 1 6 4 11 5 13 1 1 3
14 4 28 2 14 6 30 9 36 25 41 24 356 -2 387 -6 7 -8 16 -4 19 18 19 -92 271
-146 333 -11 13 -21 29 -21 34 0 6 -4 10 -8 10 -5 0 -15 11 -22 25 -7 14 -15
24 -17 22 -1 -2 -29 22 -61 52 -59 56 -99 91 -106 91 -2 0 -30 16 -62 35 -31
19 -60 33 -62 30 -2 -2 -11 3 -19 11 -8 8 -19 12 -24 9 -5 -4 -9 -2 -9 2 0 5
-21 15 -47 22 -27 7 -55 15 -63 18 -21 8 -40 12 -72 15 -16 1 -28 5 -28 8 0 3
-18 6 -40 6 -24 1 -37 -3 -33 -9 4 -6 1 -7 -8 -1 -16 10 -188 13 -194 3z"/>
<path d="M5548 5803 c-10 -3 -18 -9 -18 -14 0 -6 -4 -8 -8 -5 -5 3 -14 -4 -22
-14 -8 -10 -16 -17 -20 -15 -9 6 -51 -60 -53 -84 -1 -12 -4 -21 -8 -21 -4 0
-7 -22 -7 -50 0 -27 4 -50 8 -50 4 0 7 -8 6 -17 -2 -26 55 -102 82 -109 12 -3
22 -9 22 -13 0 -9 6 -10 81 -17 41 -4 65 -1 88 10 17 9 31 14 31 11 0 -13 70
64 85 94 23 45 23 131 0 181 -10 22 -22 40 -27 40 -5 0 -6 5 -3 10 3 6 -1 10
-9 10 -9 0 -16 4 -16 9 0 29 -146 60 -212 44z"/>
<path d="M5139 4889 c-37 -35 -39 -40 -39 -97 0 -42 5 -65 16 -76 8 -9 12 -16
7 -16 -4 0 7 -10 26 -22 37 -24 126 -32 149 -14 17 14 44 41 58 58 11 15 14
128 3 128 -4 0 -11 9 -14 20 -9 29 -60 52 -118 54 -44 1 -53 -2 -88 -35z"/>
</g>
</svg>
